<svg xmlns="http://www.w3.org/2000/svg" width="836" height="437" viewBox="0 0 836.47 437.22" xml:space="preserve">
  <path d="m827.6 357.92-.02-.02-.02-.02a39.65 39.65 0 0 0-4.4-4.76V270.5c0-14.49-3.92-26.46-11.65-35.64 1.56-4.71 2.36-9.72 2.36-14.98 0-10.85-3.63-20.72-10.49-28.53l-.02-.02-.02-.02a41.218 41.218 0 0 0-8.15-7.12c1.61-1.28 3.01-2.58 4.23-3.83 6.1-6.25 13.41-17.37 13.41-34.66 0-13.1-4.92-24.83-13.85-33.03-2.64-2.42-6.2-5.05-10.81-7.2-2.09-7.98-6.18-15.13-12.02-20.82-6.08-5.9-16.79-12.88-33.51-12.88-12.05 0-22.71 2.83-31.68 8.42-9.28 5.78-16.31 14.64-20.95 26.35-10.32-5.01-22.39-7.55-36.1-7.55-9.71 0-18.5 1.53-26.19 4.55-6.63-2.75-14.27-4.14-22.85-4.14-6.24 0-12.67.51-19.12 1.49-.96-13.15-6.37-24.9-15.81-34.19-7.21-7.09-20-15.51-40.08-15.51-20.1 0-33 8.54-40.28 15.71-8.76 8.61-14.09 19.25-15.68 31.11-7.18.31-13.96 1.8-20.19 4.47l-.75.33c-6.18-2.26-13.19-3.4-20.97-3.4-6.37 0-12.94.52-19.52 1.55-.02 0-.03.01-.05.01-3.92-6.09-8.85-11.5-14.75-16.16-8.1-6.39-17.98-11.24-29.4-14.41-10.22-2.84-21.62-4.22-34.87-4.22h-57.29l1.24-27.14c.46-10.08-3.12-19.66-10.08-26.96C260.1 4.57 249.81.26 239.03.26c-2.12 0-4.21.18-6.26.49-2.34-.49-4.78-.75-7.27-.75-7.67 0-15.07 2.32-21.41 6.72L18.16 135.7c-14.36 9.95-21.03 26.9-17 43.16 4.03 16.27 17.82 28.2 35.23 30.52l36.2 5.31.41.06.41.05c1.83.22 3.7.33 5.55.33 8.4 0 16.55-2.26 23.57-6.38-.22 9.92 3.43 19.26 10.32 26.36 4.03 4.15 9.04 7.3 14.55 9.26-4.17 9.84-6.29 20.53-6.29 31.8 0 4.91.51 9.86 1.5 14.7.11.54.23 1.08.34 1.62-6.15 5.95-11.77 13.17-16.7 21.46-6.54 11-9.86 23.63-9.86 37.53 0 12.29 2.57 24.01 7.64 34.81 5.33 11.38 13.53 21.22 24.37 29.24 9.72 7.21 21.78 12.77 35.81 16.52 12.98 3.47 27.62 5.16 44.76 5.16 16.08 0 29.67-1.66 41.56-5.09 4.57-1.32 8.99-2.82 13.25-4.5 1.5.72 3.02 1.41 4.54 2.06 4.35 1.87 8.87 3.39 13.41 4.53 5.45 1.36 11.19 2.06 17.04 2.06 10.25 0 18.42-2.16 24.84-5.12 5.16 2.06 11.38 3.46 18.77 3.46h50.7c15.06 0 27.96-1.48 39.44-4.54 6.06-1.61 11.69-3.62 16.9-6 6.29 5.22 16.26 10.54 30.72 10.54h42.18c6.3 0 11.75-1.02 16.41-2.59 4.67 1.57 10.11 2.59 16.42 2.59h38.02c6.68 0 12.41-1.11 17.26-2.82 4.85 1.7 10.57 2.82 17.24 2.82h36.78c9 0 16.25-2.07 21.97-4.9 8.89 4.12 19.94 6.98 33.51 6.98 9.84 0 18.73-1.54 26.46-4.57 6.68 2.76 14.37 4.16 23 4.16 5.35 0 11.17-.5 17.78-1.54 7.11-1.11 13.24-2.65 18.73-4.71 9.75-3.66 17.37-9.39 22.65-17.04 5.26-7.63 7.92-16.69 7.92-26.95 0-11.13-2.99-20.59-8.87-28.12z" fill="#24212b" id="Achtergrond"/>
  <g id="Kleur">
    <path d="M222.9 33.83 36.97 162.81c-6.78 4.7-4.47 12.87 3.93 13.88l36.48 5.35c4.07.49 8.39-.97 10.97-3.73l139.67-141c2.65-2.81-1.76-5.81-5.12-3.48z" fill="#39cdff"/>
    <path d="M233.26 36.14 136.2 188.46l-.06.1-.62 20.94c-.15 5.06 8.91 5.8 11.39.93l7.96-15.63c1.12-2.2 4.09-3.58 6.96-3.23l32.49 3.95 35.52 4.32c3.66.44 7.26-1.9 7.39-4.82l7.2-157.49c.21-4.89-8.28-5.93-11.17-1.39z" fill="#ff357c"/>
  </g>
  <g id="Tekst">
    <path class="st3" d="m277.63 126.79-3.53-1.66c-4.16-1.94-7.17-4.02-9.04-6.23-1.87-2.21-2.8-5.12-2.8-8.73 0-3.18 1.11-5.82 3.33-7.9s5.34-3.12 9.37-3.12h58.48c10.13 0 18.8 1.01 26.02 3.01 7.21 2.01 13.15 4.85 17.8 8.52s8.05 8.14 10.2 13.4c2.15 5.27 3.23 11.08 3.23 17.46 0 7.2-1.29 13.79-3.86 19.74-2.57 5.96-6.42 11.12-11.56 15.48-5.14 4.36-11.64 7.76-19.49 10.18-7.85 2.42-16.99 3.64-27.41 3.64h-6.88v20.57l6.44 2.7c3.74 1.53 6.47 3.19 8.21 4.99 1.73 1.8 2.6 4.29 2.6 7.48 0 3.74-1.21 6.79-3.64 9.14-2.42 2.36-5.85 3.53-10.29 3.53h-48.62c-4.44 0-7.86-1.18-10.29-3.53-2.42-2.35-3.64-5.4-3.64-9.14 0-3.19.83-5.64 2.49-7.38 1.66-1.73 4.36-3.5 8.1-5.3l4.78-2.29v-84.56zm51.53 40.32c5.26 0 9.46-1.7 12.57-5.09 3.12-3.39 4.68-8.76 4.68-16.1 0-7.34-1.46-12.6-4.36-15.79-2.91-3.19-7.2-4.78-12.88-4.78h-7.69v41.77h7.68zM410.82 163.36l-4.78-1.67c-3.6-1.25-6.13-2.72-7.58-4.39-1.45-1.68-2.18-4.33-2.18-7.95s.73-6.41 2.18-8.37c1.46-1.95 3.77-3.49 6.96-4.6 3.19-1.11 7.24-2.06 12.16-2.82 4.92-.77 9.73-1.15 14.44-1.15 6.37 0 10.84 1.21 13.4 3.64 2.56 2.42 3.84 6.48 3.84 12.16v4.16l.42.21c.97-2.77 2.21-5.44 3.74-8 1.52-2.56 3.39-4.85 5.61-6.86 2.21-2.01 4.78-3.64 7.69-4.88s6.23-1.87 9.97-1.87c4.85 0 8.17 1.32 9.97 3.95 1.8 2.63 2.7 6.58 2.7 11.84 0 4.02-.45 7.72-1.35 11.12-.9 3.4-2.08 6.34-3.53 8.83-1.45 2.49-3.19 4.44-5.19 5.82-2.01 1.39-4.05 2.08-6.13 2.08-1.25 0-2.32-.24-3.22-.73-.9-.48-1.7-1-2.39-1.56a26.77 26.77 0 0 0-2.18-1.56c-.76-.48-1.77-.73-3.01-.73-2.77 0-5.61 1.39-8.52 4.16v37.82l6.23 2.68c3.6 1.51 6.06 3.09 7.38 4.74 1.31 1.65 1.97 3.99 1.97 7.01 0 3.71-1.21 6.74-3.64 9.08s-5.85 3.5-10.29 3.5h-44.88c-4.44 0-7.86-1.17-10.29-3.5-2.42-2.34-3.64-5.36-3.64-9.08 0-3.16.69-5.57 2.08-7.22 1.38-1.65 3.67-3.23 6.86-4.74l5.2-2.47v-48.65zM508.69 163.36l-4.78-1.67c-3.6-1.25-6.13-2.72-7.58-4.39-1.45-1.68-2.18-4.33-2.18-7.95s.73-6.41 2.18-8.37c1.46-1.95 3.77-3.49 6.96-4.6 3.19-1.11 7.31-2.06 12.36-2.82 5.05-.77 10.42-1.15 16.1-1.15 7.06 0 12.16 1.57 15.27 4.69 3.12 3.13 4.67 8.23 4.67 15.31v59.58l3.95 2.06c3.32 1.79 5.64 3.51 6.96 5.16 1.31 1.65 1.97 4.05 1.97 7.22 0 3.71-1.21 6.74-3.64 9.08-2.42 2.34-5.85 3.5-10.29 3.5h-42.18c-4.44 0-7.86-1.17-10.29-3.5-2.42-2.34-3.64-5.36-3.64-9.08 0-3.16.66-5.57 1.97-7.22 1.32-1.65 3.64-3.23 6.96-4.74l5.2-2.47v-48.64zm-2.29-57.76c0-5.95 2.11-11.01 6.34-15.17 4.22-4.16 9.94-6.23 17.14-6.23 7.2 0 12.85 2.01 16.93 6.03 4.08 4.02 6.13 9.01 6.13 14.96 0 5.96-2.11 11.01-6.34 15.17s-9.94 6.23-17.14 6.23c-7.2 0-12.85-1.97-16.93-5.92s-6.13-8.97-6.13-15.07zM583.7 163.36l-4.78-1.67c-3.6-1.25-6.13-2.72-7.58-4.39-1.45-1.68-2.18-4.33-2.18-7.95s.73-6.41 2.18-8.37c1.46-1.95 3.77-3.49 6.96-4.6 3.19-1.11 7.24-2.06 12.16-2.82 4.92-.77 9.73-1.15 14.44-1.15 6.37 0 10.84 1.21 13.4 3.64 2.56 2.42 3.84 6.54 3.84 12.36v1.04l.42.21c1.52-3.33 3.67-6.23 6.44-8.73 2.35-2.21 5.54-4.26 9.56-6.13 4.02-1.87 9.14-2.8 15.38-2.8 13.16 0 23.1 3.32 29.82 9.97 6.72 6.65 10.08 16.69 10.08 30.13v39.69l3.95 2.08c3.32 1.8 5.64 3.53 6.96 5.2 1.31 1.66 1.97 4.09 1.97 7.27 0 3.74-1.21 6.79-3.64 9.14-2.43 2.36-5.85 3.53-10.29 3.53h-36.78c-4.57 0-8.1-1.18-10.6-3.53-2.49-2.35-3.74-5.4-3.74-9.14 0-3.05.48-5.4 1.45-7.07.97-1.66 2.84-3.53 5.61-5.61l2.08-1.66v-31.8c0-6.37-1.08-10.84-3.22-13.4-2.15-2.56-5.09-3.84-8.83-3.84-1.94 0-3.64.35-5.09 1.04-1.45.7-2.74 1.46-3.84 2.29-1.25.97-2.29 2.08-3.12 3.32v42.6l2.08 1.65c2.77 2.06 4.64 3.92 5.61 5.57.97 1.65 1.45 3.99 1.45 7.01 0 3.71-1.25 6.74-3.74 9.08s-6.03 3.5-10.6 3.5h-38.03c-4.44 0-7.86-1.17-10.29-3.5-2.42-2.34-3.64-5.36-3.64-9.08 0-3.16.69-5.57 2.08-7.22 1.38-1.65 3.67-3.23 6.86-4.74l5.2-2.47v-48.65zM713.77 161.49h-1.66c-8.45 0-12.68-3.88-12.68-11.64 0-4.85 1.32-8.69 3.95-11.53s6.23-4.26 10.8-4.26h1.46l4.16-12.88c2.08-6.37 4.95-10.7 8.62-12.99 3.67-2.29 8.42-3.43 14.23-3.43 4.57 0 8.07 1.18 10.49 3.53 2.42 2.36 3.64 5.61 3.64 9.77v16h10.39c8.45 0 12.67 3.88 12.67 11.64 0 4.99-1.35 8.87-4.05 11.64-2.7 2.77-6.62 4.16-11.74 4.16h-7.27v33.04c0 6.51.73 10.91 2.18 13.19 1.46 2.29 3.64 3.43 6.55 3.43 1.52 0 2.84-.1 3.95-.31 1.11-.21 2.21-.31 3.33-.31 2.35 0 4.29.87 5.82 2.6 1.52 1.73 2.29 3.98 2.29 6.75 0 2.49-.49 4.64-1.45 6.44-.97 1.8-2.29 3.53-3.95 5.19s-4.68 3.5-9.04 5.51c-4.36 2.01-10.49 3.01-18.39 3.01-11.64 0-20.26-2.94-25.87-8.83-5.61-5.89-8.42-15.41-8.42-28.57v-41.15zM295.7 281.64c9.66 0 14.49 4.2 14.49 12.59 0 5.54-1.54 9.86-4.63 12.95s-7.56 4.63-13.42 4.63h-.47l-.24.24c.79 1.43 1.54 2.93 2.26 4.51.71 1.58 1.31 3.33 1.78 5.23.47 1.9.87 4 1.19 6.3.31 2.3.47 4.71.47 7.25 0 5.23-.63 10.18-1.9 14.85s-2.77 8.99-4.51 12.95c2.69 1.58 5.14 2.97 7.37 4.16 2.21 1.19 5.14 2.81 8.79 4.87 4.75 2.7 7.96 5.03 9.62 7.01 1.66 1.98 2.49 4.55 2.49 7.72 0 4.6-1.71 8.47-5.11 11.64-3.41 3.17-8.44 4.75-15.09 4.75-3.17 0-6.18-.36-9.03-1.07a55.04 55.04 0 0 1-8.43-2.85 87.65 87.65 0 0 1-8.2-4.04c-2.7-1.5-5.39-3.12-8.08-4.87-6.97 4.12-14.85 7.45-23.64 9.98-8.79 2.53-19.6 3.8-32.43 3.8-14.1 0-26.17-1.35-36.23-4.04-10.06-2.69-18.29-6.41-24.71-11.17-6.41-4.75-11.13-10.33-14.14-16.75s-4.51-13.34-4.51-20.79c0-7.92 1.74-14.81 5.23-20.67 3.48-5.86 7.28-10.77 11.4-14.73 4.91-4.59 10.45-8.55 16.63-11.88-.95-1.43-1.94-3.21-2.97-5.35a53.73 53.73 0 0 1-2.73-6.89c-.79-2.45-1.47-5.03-2.02-7.72a39.51 39.51 0 0 1-.83-8.08c0-6.97 1.27-13.38 3.8-19.24 2.53-5.86 6.33-10.93 11.4-15.21 5.07-4.28 11.44-7.6 19.12-9.98 7.68-2.38 16.67-3.56 26.96-3.56 6.81 0 12.75.71 17.82 2.14 5.07 1.43 9.34 3.29 12.83 5.58 3.48 2.3 6.1 4.95 7.84 7.96 1.74 3.01 2.61 6.18 2.61 9.5 0 5.39-1.9 9.86-5.7 13.42-3.8 3.56-8.47 5.34-14.02 5.34-2.69 0-4.87-.79-6.53-2.38-1.66-1.58-3.32-3.29-4.99-5.11-1.66-1.82-3.53-3.52-5.58-5.11-2.06-1.58-4.67-2.38-7.84-2.38s-5.7.99-7.6 2.97c-1.9 1.98-2.85 4.95-2.85 8.91 0 6.65 1.86 13.42 5.58 20.31 3.72 6.89 8.43 13.58 14.13 20.08 5.7 6.5 11.92 12.59 18.65 18.29 6.73 5.7 13.1 10.69 19.12 14.97v-2.37c0-5.54-.71-10.1-2.14-13.66-1.43-3.56-3.33-7.16-5.7-10.81-1.27-1.74-2.5-3.29-3.68-4.63a37.607 37.607 0 0 1-3.21-4.16c-.95-1.42-1.74-2.97-2.38-4.63-.63-1.66-.95-3.76-.95-6.29 0-4.59 1.34-8.16 4.04-10.69 2.69-2.53 6.49-3.8 11.4-3.8h39.47zm-121.17 57.02c0 5.23.91 9.98 2.73 14.25 1.82 4.28 4.63 7.96 8.43 11.05 3.8 3.09 8.59 5.5 14.37 7.25 5.78 1.75 12.63 2.61 20.55 2.61 3.17 0 6.1-.16 8.79-.47 2.69-.32 4.99-.79 6.89-1.43-4.44-2.85-9.38-6.25-14.85-10.22-5.46-3.96-10.93-8.16-16.39-12.59-5.46-4.43-10.65-8.87-15.56-13.3-4.91-4.43-8.95-8.47-12.12-12.12-.48 1.27-.95 2.7-1.43 4.28-.32 1.27-.63 2.81-.95 4.63-.3 1.82-.46 3.84-.46 6.06zM343.64 289.41l-3.53-1.66c-4.16-1.94-7.17-4.02-9.04-6.23-1.87-2.21-2.8-5.12-2.8-8.73 0-3.04 1.07-5.64 3.22-7.79 2.15-2.15 5.23-3.22 9.25-3.22h59.63c9.97 0 18.53.94 25.66 2.81 7.13 1.87 12.95 4.43 17.45 7.69 4.5 3.26 7.82 7 9.97 11.22 2.15 4.23 3.22 8.62 3.22 13.2 0 7.2-1.87 13.23-5.61 18.08-3.74 4.85-9.56 8.52-17.45 11.01v.42c8.17 1.53 14.75 4.92 19.74 10.18 4.99 5.27 7.48 11.84 7.48 19.74 0 6.51-1.28 12.54-3.84 18.08-2.56 5.54-6.54 10.36-11.95 14.44-5.4 4.09-12.4 7.27-20.99 9.56-8.59 2.29-18.91 3.43-30.96 3.43h-50.7c-4.44 0-7.9-1.18-10.39-3.53-2.49-2.35-3.74-5.33-3.74-8.94 0-3.18.83-5.68 2.49-7.48 1.66-1.8 4.36-3.6 8.1-5.4l4.78-2.29v-84.59zm53.12 30.13c4.81 0 8.62-1.46 11.44-4.36 2.82-2.91 4.23-6.99 4.23-12.26 0-5.12-1.27-8.97-3.82-11.53-2.54-2.56-6.49-3.84-11.85-3.84h-10.1v32h10.1zm.7 56.31c6.37 0 11.15-1.52 14.34-4.57 3.18-3.05 4.78-7.2 4.78-12.47 0-2.77-.35-5.23-1.04-7.38-.7-2.15-1.84-3.95-3.43-5.4-1.59-1.46-3.6-2.53-6.03-3.22-2.42-.69-5.3-1.04-8.62-1.04h-10.8v34.08h10.8zM480.37 325.98l-4.78-1.67c-3.6-1.25-6.13-2.72-7.58-4.39-1.45-1.68-2.18-4.33-2.18-7.95s.73-6.41 2.18-8.37c1.46-1.95 3.77-3.49 6.96-4.6 3.19-1.11 7.31-2.06 12.36-2.82 5.05-.77 10.42-1.15 16.1-1.15 7.06 0 12.16 1.57 15.27 4.69 3.12 3.13 4.67 8.23 4.67 15.31v59.58l3.95 2.06c3.32 1.79 5.64 3.51 6.96 5.16 1.31 1.65 1.97 4.05 1.97 7.22 0 3.71-1.21 6.74-3.64 9.07-2.42 2.34-5.85 3.5-10.29 3.5h-42.18c-4.44 0-7.86-1.17-10.29-3.5-2.42-2.34-3.64-5.36-3.64-9.07 0-3.16.66-5.57 1.97-7.22 1.32-1.65 3.64-3.23 6.96-4.74l5.2-2.47v-48.64zm-2.29-57.76c0-5.95 2.11-11.01 6.34-15.17 4.22-4.16 9.94-6.23 17.14-6.23 7.2 0 12.85 2.01 16.93 6.03 4.08 4.02 6.13 9.01 6.13 14.96 0 5.96-2.11 11.01-6.34 15.17s-9.94 6.23-17.14 6.23c-7.2 0-12.85-1.97-16.93-5.92-4.09-3.96-6.13-8.98-6.13-15.07zM555.38 325.98l-4.78-1.67c-3.6-1.25-6.13-2.72-7.58-4.39-1.45-1.68-2.18-4.33-2.18-7.95s.73-6.41 2.18-8.37c1.46-1.95 3.77-3.49 6.96-4.6 3.19-1.11 7.24-2.06 12.16-2.82 4.92-.77 9.73-1.15 14.44-1.15 6.37 0 10.84 1.21 13.4 3.64 2.56 2.42 3.84 6.54 3.84 12.36v1.04l.42.21c1.52-3.33 3.67-6.23 6.44-8.73 2.35-2.21 5.54-4.26 9.56-6.13 4.02-1.87 9.14-2.8 15.38-2.8 13.16 0 23.1 3.32 29.82 9.97 6.72 6.65 10.08 16.69 10.08 30.13v39.69l3.95 2.08c3.32 1.8 5.64 3.53 6.96 5.2 1.31 1.66 1.97 4.09 1.97 7.27 0 3.74-1.21 6.79-3.64 9.14-2.43 2.36-5.85 3.53-10.29 3.53h-36.78c-4.57 0-8.1-1.18-10.6-3.53-2.49-2.35-3.74-5.4-3.74-9.14 0-3.05.48-5.4 1.45-7.07.97-1.66 2.84-3.53 5.61-5.61l2.08-1.66v-31.79c0-6.37-1.08-10.84-3.22-13.4-2.15-2.56-5.09-3.84-8.83-3.84-1.94 0-3.64.35-5.09 1.04-1.45.7-2.74 1.46-3.84 2.29-1.25.97-2.29 2.08-3.12 3.32v42.6l2.08 1.65c2.77 2.06 4.64 3.92 5.61 5.57.97 1.65 1.45 3.99 1.45 7.01 0 3.71-1.25 6.74-3.74 9.07-2.49 2.34-6.03 3.5-10.6 3.5h-38.03c-4.44 0-7.86-1.17-10.29-3.5-2.42-2.34-3.64-5.36-3.64-9.07 0-3.16.69-5.57 2.08-7.22 1.38-1.65 3.67-3.23 6.86-4.74l5.2-2.47v-48.66zM747.58 280.89l-5.19-1.66c-3.6-1.11-6.13-2.53-7.58-4.26-1.46-1.73-2.18-4.33-2.18-7.79s.73-6.16 2.18-8.1c1.45-1.94 3.77-3.46 6.96-4.57 3.18-1.11 7.3-2.04 12.36-2.8 5.05-.76 10.42-1.14 16.1-1.14 7.06 0 12.16 1.56 15.27 4.67s4.67 8.21 4.67 15.27v102.44l4.16 1.25c3.6 1.11 6.03 2.46 7.27 4.05 1.25 1.59 1.87 4.19 1.87 7.79 0 3.46-.7 6.2-2.08 8.21-1.39 2.01-3.74 3.64-7.06 4.88-3.33 1.25-7.41 2.25-12.26 3.01-4.85.76-9.07 1.14-12.67 1.14-6.37 0-10.91-1.21-13.61-3.64-2.7-2.42-4.05-6.55-4.05-12.36v-1.04l-.42-.21c-1.53 3.46-3.67 6.44-6.44 8.93-2.36 2.22-5.54 4.23-9.56 6.03-4.02 1.8-9.14 2.7-15.38 2.7-13.16 0-23.48-4.05-30.96-12.16-7.48-8.1-11.22-20.6-11.22-37.5 0-9.28 1.35-17.63 4.05-25.04 2.7-7.41 6.68-13.64 11.95-18.7 5.26-5.05 11.74-8.93 19.43-11.64s16.52-4.05 26.49-4.05c1.11 0 2.15.04 3.12.1.97.07 1.8.18 2.49.31.83.14 1.59.21 2.29.21l.42-.42c-.14-.97-.24-1.97-.31-3.01-.07-1.04-.1-2.11-.1-3.22v-7.68zm-.42 43.01c-.55-.14-1.17-.28-1.85-.42-.69-.14-1.45-.24-2.27-.31-.83-.07-1.79-.1-2.88-.1-5.91 0-10.41 2.01-13.5 6.03-3.09 4.02-4.64 10.94-4.64 20.78 0 8.59 1.27 14.54 3.81 17.87 2.54 3.32 5.67 4.99 9.38 4.99 1.92 0 3.61-.34 5.05-1.04 1.44-.69 2.71-1.45 3.82-2.29 1.23-.97 2.27-2.08 3.09-3.33V323.9z" fill="#ffffff" />
  </g>
</svg>
